# xmcd CD database file
#
# Track frame offsets:
#	150
#	24257
#	51872
#	84385
#	101625
#	138480
#	182035
#	211462
#	219665
#	248822
#
# Disc length: 3714 seconds
#
# Revision: 0
# Processed by: cddbd v1.5PL3 Copyright (c) Steve Scherf et al.
# Submitted via: CDex 1.51
#
DISCID=8a0e800a
DTITLE=Jo Yamada - In the Pleasant Shade
DYEAR=1900
DGENRE=Jazz
TTITLE0=carving the wood
TTITLE1=tater tot
TTITLE2=the very thought of you
TTITLE3=thythm-a-ning
TTITLE4=three lingts with beautiful wisdom
TTITLE5=in your own sweet way
TTITLE6=I see your face before me
TTITLE7=a little prayer
TTITLE8=relaxin' at camarillo
TTITLE9=stars fell on alabama
EXTD=
EXTT0=
EXTT1=
EXTT2=
EXTT3=
EXTT4=
EXTT5=
EXTT6=
EXTT7=
EXTT8=
EXTT9=
PLAYORDER=
